<mxfile host="app.diagrams.net" modified="2023-03-22T02:43:33.950Z" agent="5.0 (Macintosh; Intel Mac OS X 10_15_7) AppleWebKit/537.36 (KHTML, like Gecko) Chrome/111.0.0.0 Safari/537.36" etag="I740A9IVkoZjrYDuT6jJ" version="21.0.8" type="github">
  <diagram name="Page-1" id="82e54ff1-d628-8f03-85c4-9753963a91cd">
    <mxGraphModel dx="1343" dy="906" grid="1" gridSize="10" guides="1" tooltips="1" connect="1" arrows="1" fold="1" page="1" pageScale="1" pageWidth="1100" pageHeight="850" background="none" math="0" shadow="0">
      <root>
        <mxCell id="0" />
        <mxCell id="1" parent="0" />
        <mxCell id="4ec97bd9e5d20128-1" value="" style="line;strokeWidth=2;html=1;fillColor=none;fontSize=28;fontColor=#004D99;strokeColor=#004D99;" parent="1" vertex="1">
          <mxGeometry x="30" y="170" width="1000" height="10" as="geometry" />
        </mxCell>
        <mxCell id="4ec97bd9e5d20128-5" value="1)十步开钱眼法自己确定未来。" style="shape=offPageConnector;whiteSpace=wrap;html=1;fillColor=#0075E8;fontSize=15;fontColor=#FFFFFF;size=0.5093750000000015;verticalAlign=top;strokeColor=none;" parent="1" vertex="1">
          <mxGeometry x="110" y="110" width="160" height="50" as="geometry" />
        </mxCell>
        <mxCell id="4ec97bd9e5d20128-6" value="3)从旁观者角度确定未来" style="shape=offPageConnector;whiteSpace=wrap;html=1;fillColor=#0075E8;fontSize=15;fontColor=#FFFFFF;size=0.5093750000000015;verticalAlign=top;strokeColor=none;" parent="1" vertex="1">
          <mxGeometry x="563" y="100" width="160" height="50" as="geometry" />
        </mxCell>
        <mxCell id="4ec97bd9e5d20128-7" value="让看到过未来的人，帮你确定未来。" style="shape=offPageConnector;whiteSpace=wrap;html=1;fillColor=#0075E8;fontSize=15;fontColor=#FFFFFF;size=0.4178571428571445;flipV=1;verticalAlign=bottom;strokeColor=none;spacingBottom=4;" parent="1" vertex="1">
          <mxGeometry x="337" y="195" width="160" height="65" as="geometry" />
        </mxCell>
        <mxCell id="4ec97bd9e5d20128-8" value="&lt;span&gt;Stage 4&lt;/span&gt;" style="shape=offPageConnector;whiteSpace=wrap;html=1;fillColor=#0075E8;fontSize=15;fontColor=#FFFFFF;size=0.4178571428571445;flipV=1;verticalAlign=bottom;strokeColor=none;spacingBottom=4;" parent="1" vertex="1">
          <mxGeometry x="870" y="185" width="160" height="35" as="geometry" />
        </mxCell>
        <mxCell id="4ec97bd9e5d20128-9" value="" style="ellipse;whiteSpace=wrap;html=1;fillColor=#61BAFF;fontSize=28;fontColor=#004D99;strokeWidth=3;strokeColor=#004D99;" parent="1" vertex="1">
          <mxGeometry x="180" y="165" width="20" height="20" as="geometry" />
        </mxCell>
        <mxCell id="4ec97bd9e5d20128-10" value="" style="ellipse;whiteSpace=wrap;html=1;fillColor=#61BAFF;fontSize=28;fontColor=#004D99;strokeWidth=3;strokeColor=#004D99;" parent="1" vertex="1">
          <mxGeometry x="407" y="165" width="20" height="20" as="geometry" />
        </mxCell>
        <mxCell id="4ec97bd9e5d20128-11" value="" style="ellipse;whiteSpace=wrap;html=1;fillColor=#61BAFF;fontSize=28;fontColor=#004D99;strokeWidth=3;strokeColor=#004D99;" parent="1" vertex="1">
          <mxGeometry x="633" y="165" width="20" height="20" as="geometry" />
        </mxCell>
        <mxCell id="4ec97bd9e5d20128-13" value="" style="ellipse;whiteSpace=wrap;html=1;fillColor=#61BAFF;fontSize=28;fontColor=#004D99;strokeWidth=3;strokeColor=#004D99;" parent="1" vertex="1">
          <mxGeometry x="940" y="165" width="20" height="20" as="geometry" />
        </mxCell>
        <mxCell id="4ec97bd9e5d20128-14" value="&lt;p&gt;第一步，任意打开一个社交软件&lt;/p&gt;&lt;p&gt;第二步，找广告和联系方式看&lt;/p&gt;&lt;p&gt;第三步，浏览感兴趣的卖家更多信息&lt;/p&gt;&lt;p&gt;第四步，根据关键词搜索同行和客户&lt;/p&gt;&lt;p&gt;第五步，观察同行存活时间&lt;/p&gt;&lt;p&gt;第六步，观察相关同行销量、投产比&lt;/p&gt;&lt;p&gt;第七步,找好对你脾气的卖家搜集他的所有资料&lt;/p&gt;&lt;p&gt;第八步，成为他的客户.&lt;/p&gt;&lt;p&gt;第九步，摸查上下游估算启动成本&lt;/p&gt;&lt;p&gt;第十步，选中的同行信息过少?还有三招&lt;/p&gt;&lt;p&gt;#1:增加同行样板。&lt;/p&gt;&lt;p&gt;#2:去淘宝搜一下关键词。&lt;/p&gt;&lt;p&gt;#3:找第三方服务商代发招聘广告。&lt;/p&gt;" style="text;html=1;spacing=5;spacingTop=-20;whiteSpace=wrap;overflow=hidden;strokeColor=#b85450;strokeWidth=3;fillColor=#f8cecc;fontSize=13;align=center;rounded=1;shadow=1;gradientColor=#3333FF;" parent="1" vertex="1">
          <mxGeometry x="10" y="200" width="288" height="360" as="geometry" />
        </mxCell>
        <mxCell id="4ec97bd9e5d20128-16" value="&lt;p&gt;你选定一个强人目标，除非你比肩他，或者超越他了，否则就别换目标。换来换去的，&lt;/p&gt;&lt;p&gt;哪个都不专注，哪个都没结果。.&lt;/p&gt;" style="text;html=1;spacing=5;spacingTop=-20;whiteSpace=wrap;overflow=hidden;strokeColor=none;strokeWidth=3;fillColor=#E6E6E6;fontSize=13;fontColor=#000000;align=center;rounded=1;" parent="1" vertex="1">
          <mxGeometry x="309" y="20" width="215" height="120" as="geometry" />
        </mxCell>
        <mxCell id="4ec97bd9e5d20128-17" value="&lt;p style=&quot;line-height: 70%;&quot;&gt;你选任何行业，在谈单的时候，都是在做咨询。&lt;/p&gt;&lt;p style=&quot;line-height: 70%;&quot;&gt;客户有需求,客户找你问，客户交钱得到。&lt;/p&gt;&lt;p style=&quot;line-height: 70%;&quot;&gt;交钱之后，你提供的是深度咨询,就是咨询行业。&lt;/p&gt;&lt;p style=&quot;line-height: 70%;&quot;&gt;交钱之后，你提供的是其他产品，就是其他行业。&lt;/p&gt;&lt;p style=&quot;line-height: 70%;&quot;&gt;所以，排除谬论,那就是收钱能量场只能用于&lt;font color=&quot;#ff66b3&quot;&gt;教育培训和咨询业。&lt;/font&gt;&lt;/p&gt;" style="text;html=1;spacing=5;spacingTop=-20;whiteSpace=wrap;overflow=hidden;strokeColor=#9673a6;strokeWidth=3;fillColor=#e1d5e7;fontSize=13;align=center;rounded=1;" parent="1" vertex="1">
          <mxGeometry x="490" y="195" width="380" height="170" as="geometry" />
        </mxCell>
        <mxCell id="4ec97bd9e5d20128-18" value="&lt;h1&gt;Heading&lt;/h1&gt;&lt;p&gt;Lorem ipsum dolor sit amet, consectetur adipisicing elit, sed do eiusmod tempor incididunt ut labore et dolore magna aliqua.&lt;/p&gt;" style="text;html=1;spacing=5;spacingTop=-20;whiteSpace=wrap;overflow=hidden;strokeColor=none;strokeWidth=3;fillColor=#E6E6E6;fontSize=13;fontColor=#000000;align=center;rounded=1;" parent="1" vertex="1">
          <mxGeometry x="763" y="20" width="215" height="120" as="geometry" />
        </mxCell>
        <mxCell id="YIFMpMohFCwJruksvC_Z-1" value="&lt;p style=&quot;line-height: 60%;&quot;&gt;&lt;b&gt;&lt;font color=&quot;#f31212&quot;&gt;收钱&lt;/font&gt;&lt;/b&gt;主张是让客户看到你与同行有什么不同怎么收费。&lt;/p&gt;&lt;p style=&quot;line-height: 60%;&quot;&gt;&lt;span style=&quot;font-size: 12px;&quot;&gt;&lt;font color=&quot;#ff3333&quot;&gt;成功案例&lt;/font&gt;是让客户看到自己的理想状态。&lt;/span&gt;&lt;/p&gt;&lt;p style=&quot;line-height: 60%;&quot;&gt;&lt;b style=&quot;&quot;&gt;&lt;font color=&quot;#ff3333&quot; style=&quot;font-size: 15px;&quot;&gt;我能干什么+我干成了什么&lt;/font&gt;&lt;/b&gt;&lt;/p&gt;&lt;p style=&quot;line-height: 112%;&quot;&gt;&lt;b style=&quot;&quot;&gt;&lt;font color=&quot;#ff3333&quot; style=&quot;font-size: 15px;&quot;&gt;C市场迭代非常快，每隔几年一代。B市场更新慢，且有漏网之鱼&lt;/font&gt;&lt;/b&gt;&lt;/p&gt;&lt;p style=&quot;text-align: center; line-height: 112%;&quot;&gt;&lt;b style=&quot;&quot;&gt;&lt;font color=&quot;#ff2600&quot; face=&quot;Garamond&quot; style=&quot;font-size: 26px; background-color: rgb(51, 51, 255);&quot;&gt;收钱主张+成功案例&lt;/font&gt;&lt;/b&gt;&lt;/p&gt;&lt;p style=&quot;text-align: center; line-height: 30%;&quot;&gt;&lt;font color=&quot;#4c0099&quot; face=&quot;Garamond&quot; style=&quot;&quot;&gt;&lt;b style=&quot;background-color: rgb(255, 255, 255);&quot;&gt;-是克制心魔，坚持做。&lt;/b&gt;&lt;br&gt;&lt;/font&gt;&lt;/p&gt;&lt;div style=&quot;text-align: center; line-height: 30%;&quot;&gt;&lt;font color=&quot;#4c0099&quot; face=&quot;Garamond&quot;&gt;&lt;b style=&quot;&quot;&gt;二是从付钱的客户思维出发。&lt;/b&gt;&lt;/font&gt;&lt;/div&gt;&lt;p style=&quot;text-align: center; line-height: 112%;&quot;&gt;&lt;font color=&quot;#ff2600&quot; face=&quot;Garamond&quot; style=&quot;&quot;&gt;&lt;b style=&quot;background-color: rgb(255, 255, 255);&quot;&gt;&lt;br&gt;&lt;/b&gt;&lt;/font&gt;&lt;/p&gt;" style="text;html=1;strokeColor=default;fillColor=none;spacing=5;spacingTop=-20;whiteSpace=wrap;overflow=hidden;rounded=1;shadow=1;" vertex="1" parent="1">
          <mxGeometry x="337" y="430" width="382" height="190" as="geometry" />
        </mxCell>
        <mxCell id="YIFMpMohFCwJruksvC_Z-7" value="&lt;p style=&quot;line-height: 40%;&quot;&gt;&lt;br&gt;&lt;/p&gt;&lt;p style=&quot;line-height: 40%;&quot;&gt;能一单收几千块、上万的业务还有什么?&lt;/p&gt;&lt;p style=&quot;line-height: 40%;&quot;&gt;&lt;span style=&quot;font-size: 12px;&quot;&gt;我随便举给你几个例子:&lt;/span&gt;&lt;/p&gt;&lt;p style=&quot;line-height: 40%;&quot;&gt;&lt;span style=&quot;font-size: 12px;&quot;&gt;1、放贷抽息、抵押典当、。&lt;/span&gt;&lt;/p&gt;&lt;p style=&quot;line-height: 40%;&quot;&gt;&lt;span style=&quot;font-size: 12px;&quot;&gt;2、汽车、房产、保险等高客单产品销售&lt;/span&gt;&lt;/p&gt;&lt;p style=&quot;line-height: 40%;&quot;&gt;&lt;span style=&quot;font-size: 12px;&quot;&gt;3、各种音乐、职业技能、K12教育培训&lt;/span&gt;&lt;/p&gt;&lt;p style=&quot;line-height: 40%;&quot;&gt;&lt;span style=&quot;font-size: 12px;&quot;&gt;4、服装导购、服装定制、形象定制等高客单服装业&lt;/span&gt;&lt;/p&gt;&lt;p style=&quot;line-height: 40%;&quot;&gt;&lt;span style=&quot;font-size: 12px;&quot;&gt;5、代办各种XXXX证&lt;/span&gt;&lt;/p&gt;&lt;p style=&quot;line-height: 40%;&quot;&gt;&lt;span style=&quot;font-size: 12px;&quot;&gt;6、婚礼定制、庆典定制&lt;/span&gt;&lt;/p&gt;&lt;p style=&quot;line-height: 40%;&quot;&gt;&lt;span style=&quot;font-size: 12px;&quot;&gt;7、旅游路线定制&lt;/span&gt;&lt;/p&gt;&lt;p style=&quot;line-height: 40%;&quot;&gt;&lt;span style=&quot;font-size: 12px;&quot;&gt;8、建筑设计、家居设计、logo设计等设计行业&lt;/span&gt;&lt;/p&gt;&lt;p style=&quot;line-height: 40%;&quot;&gt;1、开淘宝店卖各种日化品,详情页就是收钱能量场。&lt;/p&gt;&lt;p style=&quot;line-height: 80%;&quot;&gt;&lt;span style=&quot;font-size: 12px;&quot;&gt;2、投放微信公众号广告,文章页就是收钱能量场,无论你卖的是纸巾,还是基金。&lt;/span&gt;&lt;/p&gt;&lt;p style=&quot;line-height: 80%;&quot;&gt;&lt;span style=&quot;font-size: 12px;&quot;&gt;3、开-一个门店，装修、招牌和店内品牌文化介绍就是收钱能量场。&lt;/span&gt;&lt;/p&gt;&lt;p style=&quot;line-height: 40%;&quot;&gt;&lt;/p&gt;&lt;p style=&quot;line-height: 90%;&quot;&gt;&lt;span style=&quot;font-size: 12px;&quot;&gt;4、做一个公众号小工具付费识别文章敏感词，工具介绍就是收钱能量场。&lt;/span&gt;&lt;/p&gt;&lt;p style=&quot;line-height: 50%;&quot;&gt;&lt;span style=&quot;font-size: 12px;&quot;&gt;&lt;br&gt;&lt;/span&gt;&lt;/p&gt;" style="text;html=1;strokeColor=default;fillColor=none;spacing=5;spacingTop=-20;whiteSpace=wrap;overflow=hidden;rounded=1;shadow=1;" vertex="1" parent="1">
          <mxGeometry x="760" y="430" width="310" height="360" as="geometry" />
        </mxCell>
        <mxCell id="YIFMpMohFCwJruksvC_Z-8" value="客户真的迫切想要理想状态的时候,他会反复说服自己，自我催眠的。&lt;br&gt;你卖产品,你只要让客户知道你卖的啥，自我催眠的时候有案例素材催眠，就够了。" style="text;html=1;strokeColor=#b85450;fillColor=#f8cecc;align=center;verticalAlign=middle;whiteSpace=wrap;rounded=1;" vertex="1" parent="1">
          <mxGeometry x="330" y="650" width="400" height="50" as="geometry" />
        </mxCell>
        <mxCell id="YIFMpMohFCwJruksvC_Z-9" value="&lt;p style=&quot;line-height: 60%;&quot;&gt;最开始的客户见证怎么来的?&lt;/p&gt;&lt;p style=&quot;line-height: 60%;&quot;&gt;&lt;span style=&quot;font-size: 12px;&quot;&gt;1、给一些身边潜在客户低价优惠,做出来的。&lt;/span&gt;&lt;/p&gt;&lt;p style=&quot;line-height: 60%;&quot;&gt;&lt;span style=&quot;font-size: 12px;&quot;&gt;2、第一批相信你的人，做出来的。&lt;/span&gt;&lt;/p&gt;&lt;p style=&quot;line-height: 60%;&quot;&gt;&lt;span style=&quot;font-size: 12px;&quot;&gt;3、借其他同行的图,发出来的。&lt;/span&gt;&lt;/p&gt;&lt;p style=&quot;line-height: 60%;&quot;&gt;&lt;span style=&quot;font-size: 12px;&quot;&gt;4、自己拿P图软件或者水军搞出来的&lt;/span&gt;&lt;/p&gt;&lt;p style=&quot;line-height: 60%;&quot;&gt;持续的客户见证怎么来的?&lt;/p&gt;&lt;p style=&quot;line-height: 60%;&quot;&gt;&lt;span style=&quot;font-size: 12px;&quot;&gt;1、自己的客户真实做出来。&lt;/span&gt;&lt;/p&gt;&lt;p style=&quot;line-height: 60%;&quot;&gt;&lt;span style=&quot;font-size: 12px;&quot;&gt;2、自己用作图软件P出来。&lt;/span&gt;&lt;/p&gt;&lt;p style=&quot;line-height: 60%;&quot;&gt;&lt;/p&gt;&lt;p style=&quot;line-height: 60%;&quot;&gt;&lt;span style=&quot;font-size: 12px;&quot;&gt;3、自己请水军刷起来。&lt;/span&gt;&lt;/p&gt;" style="text;html=1;strokeColor=default;fillColor=#99e1f0;spacing=5;spacingTop=-20;whiteSpace=wrap;overflow=hidden;rounded=0;opacity=80;" vertex="1" parent="1">
          <mxGeometry x="30" y="600" width="290" height="190" as="geometry" />
        </mxCell>
        <mxCell id="YIFMpMohFCwJruksvC_Z-10" value="&lt;font color=&quot;#fa0505&quot; style=&quot;font-size: 24px;&quot;&gt;造神运动&lt;/font&gt;" style="text;html=1;strokeColor=none;fillColor=none;align=center;verticalAlign=middle;whiteSpace=wrap;rounded=0;" vertex="1" parent="1">
          <mxGeometry x="510" y="730" width="130" height="60" as="geometry" />
        </mxCell>
      </root>
    </mxGraphModel>
  </diagram>
</mxfile>
